<?xml version="1.0" standalone="no"?>
<!DOCTYPE svg PUBLIC "-//W3C//DTD SVG 20010904//EN"
 "http://www.w3.org/TR/2001/REC-SVG-20010904/DTD/svg10.dtd">
<svg version="1.0" xmlns="http://www.w3.org/2000/svg"
 width="700.000000pt" height="700.000000pt" viewBox="0 0 700.000000 700.000000"
 preserveAspectRatio="xMidYMid meet">
<metadata>
Created by potrace 1.14, written by Peter Selinger 2001-2017
</metadata>
<g transform="translate(0.000000,700.000000) scale(0.100000,-0.100000)"
fill="#000000" stroke="none">
<path d="M320 3500 l0 -3180 3185 0 3185 0 -2 3178 -3 3177 -3182 3 -3183 2 0
-3180z m5340 0 l0 -2150 -2155 0 -2155 0 0 2150 0 2150 2155 0 2155 0 0 -2150z"/>
<path d="M2032 5304 c-24 -143 -57 -338 -75 -434 l-32 -175 -218 -3 -217 -2 0
-240 0 -240 171 0 171 0 -5 -22 c-4 -13 -22 -98 -41 -189 -65 -308 -146 -662
-207 -902 -34 -131 -59 -240 -57 -241 21 -18 420 -216 426 -212 5 3 14 30 21
61 10 43 16 55 28 51 25 -10 213 -158 213 -168 0 -13 -99 -165 -158 -243 -114
-150 -306 -324 -464 -420 -43 -25 -78 -49 -78 -52 0 -3 31 -38 69 -78 64 -70
166 -209 215 -295 l22 -39 85 56 c255 170 554 476 687 702 l26 44 150 -154
c83 -85 169 -178 191 -207 21 -29 42 -52 45 -52 8 1 304 401 308 416 2 7 -29
49 -68 93 -60 68 -123 128 -358 337 l-34 30 47 135 c130 373 215 774 270 1264
27 247 50 524 43 530 -2 3 -74 16 -159 29 -114 18 -167 22 -204 15 -27 -4
-134 -8 -237 -8 -144 -1 -188 2 -188 12 0 6 11 71 25 142 43 218 125 669 122
671 -1 1 -90 9 -197 18 -107 10 -218 20 -245 23 l-51 5 -42 -258z m648 -1116
c0 -91 -88 -576 -141 -778 -25 -96 -106 -358 -114 -368 -2 -2 -211 138 -299
201 -19 13 -18 22 51 338 40 178 86 393 104 477 l33 152 183 0 183 0 0 -22z"/>
<path d="M5076 5363 c-4 -4 -407 -10 -894 -13 l-887 -5 -3 -242 -2 -243 681
-2 681 -3 -120 -160 c-66 -88 -159 -204 -206 -257 l-87 -98 -84 0 -85 0 0
-255 0 -255 -460 0 -460 0 0 -245 0 -245 460 0 460 0 0 -658 c0 -635 -1 -660
-19 -676 -17 -16 -47 -17 -303 -16 -155 1 -286 1 -291 1 -4 -1 7 -29 24 -62
55 -110 111 -262 149 -408 l12 -44 201 6 c338 10 531 61 637 167 49 49 66 83
91 177 18 72 19 116 19 795 l0 718 485 0 485 0 0 245 0 245 -485 0 -485 0 0
123 0 122 81 80 c108 107 302 324 420 471 166 207 360 472 358 490 -1 14 -324
249 -346 252 -10 2 -22 -1 -27 -5z"/>
</g>
</svg>
